<svg id="Layer_1" data-name="Layer 1" xmlns="http://www.w3.org/2000/svg" viewBox="0 0 112 30"><defs><style>.cls-1{fill:#ff4d5e;}</style></defs><title>presto_logo</title><path class="cls-1" d="M78.51,8.61a4.12,4.12,0,0,0,1.39,4.15,8.57,8.57,0,0,0,4.54,1.42H86l-1.26,5.36a37.44,37.44,0,0,1-3.12,9.68c1,1,3.56.93,5-.07a8.86,8.86,0,0,0,3.18-4.46c0.53-1.66.92-3.33,1.29-5l1.38-5.87c3-.22,5.93-0.46,8.8-0.39,3.13,0.08,4.58.94,4.87,4.11,0.35,3.74-1.8,8.68-4.19,8.68-4.14,0-4.54-7.47-1.17-10.5A1.69,1.69,0,0,0,99.45,15c-3.3-.33-5.41,2.94-6.11,5.73-1.23,4.88,1.87,9.3,7.13,9.3,9.11,0,13.3-9.25,10.83-16.11-1-2.73-3.47-4-6.23-4.57S98,9,93.56,9.24A34.24,34.24,0,0,1,96.39.73c-1-1-3.56-.93-5,0.07a8.73,8.73,0,0,0-3.18,4.46c-0.45,1.45-.79,2.89-1.12,4.31-3.8.12-7.06,0-8.62-.95M80.81,20c-0.49-1.79-2.66-4.15-3.79-5.71A11.5,11.5,0,0,1,75,10.14a5.93,5.93,0,0,1-.11-0.7v0h0c-2.4-.14-7.25,7.42-12.26,12.25-1.66,1.6-5.43,4.32-8.26,4.09-1-.08-2.2-0.45-2.49-1.48a14.57,14.57,0,0,0,11.27-7.84c1.17-2.56,1.15-5.37-2.31-6.64-3.82-1.41-8.15,1.39-10.56,3.95a13.87,13.87,0,0,0-3.48,6.44,9.92,9.92,0,0,0,.14,5.39,6.78,6.78,0,0,0,4.28,4C62.5,32.16,68,20.83,73,16.93,74,18.72,76.07,21,75.85,23.12a2.06,2.06,0,0,1-4.1-.33v0H71.61c-3.83-.07-4.22,7.25,2.55,7.16a6.67,6.67,0,0,0,2.44-.5C80.28,27.91,81.86,23.81,80.81,20ZM54.49,15.47c1.64-1.46,3.13-1.73,3.84-1.2,2.35,1.82-4.42,5.66-6.84,6.14A8.79,8.79,0,0,1,54.49,15.47ZM48,12c-1.35,2.33-3.79,6.05-4,8.4A3.36,3.36,0,0,1,41,19.49a2.79,2.79,0,0,1-.3-2.77,9.52,9.52,0,0,1,.84-2c-1.77.27-3.46,2.22-4.63,4.15-1.28,2.11-1.39,3.57-2.11,5.84a8.86,8.86,0,0,1-3.18,4.46c-1.4,1-4,1.11-5,.07a37.41,37.41,0,0,0,3.12-9.68c0-.16.05-0.29,0.09-0.45,0.33-1.45.69-2.93,1.15-4.43a8.73,8.73,0,0,1,3.18-4.46,5,5,0,0,1,4.22-.55L37.19,14.8c2.52-3,9.1-7.06,11-5,0.39,0.43.3,1.17-.26,2.15M13.73,7.29a7.52,7.52,0,0,0-3.91,4.8C9.37,13.58,8.89,15,8.56,16.47c-1,4.51-1.82,8.92-3.87,12.76,1,1,3.56.93,5-.07a8.86,8.86,0,0,0,3.18-4.46c0.44-1.38.78-2.76,1.1-4.14,8,5.12,18.56-5.05,15-14.89-1-2.73-3.47-4-6.23-4.57C16.2-.22,4.16,2.46.11,0.39A4.12,4.12,0,0,0,1.5,4.54,8.57,8.57,0,0,0,6,6c5.76,0.12,7.47-.85,12.9-0.71,3.13,0.08,4.59,1,4.87,4.16,0.43,4.88-5,11-7.67,7-1.39-2.08.94-6.9,1.87-8.78-1-1.08-3-.84-4.27-0.29"/></svg>